<svg xmlns="http://www.w3.org/2000/svg" width="128" height="128" viewBox="0 0 128 128" role="img" aria-label="Rustorrent">
  <!-- An R whose stem ends in a download arrow, inside a cog ring. -->
  <defs>
    <linearGradient id="bg" x1="0" y1="0" x2="1" y2="1">
      <stop offset="0" stop-color="#ff8a4c"/>
      <stop offset="1" stop-color="#c2410c"/>
    </linearGradient>
    <linearGradient id="gloss" x1="0" y1="0" x2="0" y2="1">
      <stop offset="0" stop-color="#fff" stop-opacity=".2"/>
      <stop offset=".5" stop-color="#fff" stop-opacity="0"/>
    </linearGradient>
    <filter id="shadow" x="-20%" y="-20%" width="140%" height="150%">
      <feDropShadow dx="0" dy="4" stdDeviation="5" flood-color="#7c2d12" flood-opacity=".35"/>
    </filter>
  </defs>
  <g filter="url(#shadow)">
    <rect x="8" y="6" width="112" height="112" rx="28" fill="url(#bg)"/>
    <rect x="8" y="6" width="112" height="112" rx="28" fill="url(#gloss)"/>
  </g>
  <g fill="#fff" stroke="#fff" opacity=".22"><rect x="59" y="15" width="10" height="13" rx="3"/><rect x="59" y="15" width="10" height="13" rx="3" transform="rotate(36 64 62)"/><rect x="59" y="15" width="10" height="13" rx="3" transform="rotate(72 64 62)"/><rect x="59" y="15" width="10" height="13" rx="3" transform="rotate(108 64 62)"/><rect x="59" y="15" width="10" height="13" rx="3" transform="rotate(144 64 62)"/><rect x="59" y="15" width="10" height="13" rx="3" transform="rotate(180 64 62)"/><rect x="59" y="15" width="10" height="13" rx="3" transform="rotate(216 64 62)"/><rect x="59" y="15" width="10" height="13" rx="3" transform="rotate(252 64 62)"/><rect x="59" y="15" width="10" height="13" rx="3" transform="rotate(288 64 62)"/><rect x="59" y="15" width="10" height="13" rx="3" transform="rotate(324 64 62)"/><circle cx="64" cy="62" r="38" fill="none" stroke-width="6"/></g>
  <path d="M54.5 37v45M46.5 74l8 8 8-8M54.5 37h13a12 12 0 0 1 0 24h-13M68.5 61l13 21" fill="none" stroke="#fff" stroke-width="9" stroke-linecap="round" stroke-linejoin="round"/>
</svg>
